<?xml version="1.0" encoding="UTF-8"?>
<svg xmlns="http://www.w3.org/2000/svg" viewBox="0 0 426.6847 418.9096">
  <defs>
    <style>
      .cls-1 {
        fill: #f0f0f0;
      }

      .cls-2, .cls-3, .cls-4, .cls-5, .cls-6 {
        fill: #fff;
      }

      .cls-7, .cls-5, .cls-6, .cls-8 {
        opacity: .5;
      }

      .cls-9 {
        fill: #a24e3f;
      }

      .cls-3 {
        opacity: .4;
      }

      .cls-10 {
        fill: #f5f5f5;
      }

      .cls-4, .cls-11 {
        opacity: .3;
      }

      .cls-12, .cls-13 {
        opacity: .2;
      }

      .cls-14 {
        opacity: .8;
      }

      .cls-14, .cls-6 {
        isolation: isolate;
      }

      .cls-15 {
        fill: #e0e0e0;
      }

      .cls-16 {
        fill: #e6e6e6;
      }

      .cls-17 {
        stroke: #263238;
      }

      .cls-17, .cls-8, .cls-18, .cls-13 {
        fill: none;
      }

      .cls-17, .cls-18, .cls-13 {
        stroke-width: .5px;
      }

      .cls-17, .cls-13 {
        stroke-linecap: round;
        stroke-linejoin: round;
      }

      .cls-19 {
        fill: #407bff;
      }

      .cls-20 {
        fill: #ff7c77;
      }

      .cls-8 {
        stroke: #fff;
      }

      .cls-8, .cls-18 {
        stroke-miterlimit: 10;
      }

      .cls-21 {
        fill: #ffbeb8;
      }

      .cls-18, .cls-13 {
        stroke: #000;
      }

      .cls-22 {
        fill: #263238;
      }
    </style>
  </defs>
  <g id="Background_complete" data-name="Background complete">
    <path class="cls-15" d="m426.4827,370.9011c-.4348-1.1203-1.4962-1.8866-2.6732-2.1291-8.6999-1.793-16.9118-.5594-25.7666.1417-27.0671,1.022-86.5358-11.0625-112.9551-.8053-27.8622,10.8173-48.0544,11.2628-81.2725,2.7434,3.5636,5.6407-5.1257,9.0745-8.4836,10.8266-3.5496,1.8523-6.7582,6.5828-3.5988,9.5411,1.0137.9492,2.4103,1.3654,3.799,1.3762,12.149.0947,23.3052-8.1817,35.3231-6.9687,6.5741.6635,12.4813,4.1047,18.588,6.6285,6.1066,2.5238,13.2748,4.1094,19.1642,1.1136,4.9887-2.5377,8.2273-7.9844,13.5326-9.7676,5.1235-1.7221,10.6686.4483,15.572,2.7227,4.9033,2.2744,10.2098,4.7534,15.4962,3.6264s9.4626-7.9085,6.0364-12.0891c11.871-1.4127,23.6852,2.1526,35.3152,4.9202,8.9776,2.1364,18.5064,3.7758,27.4877,2.3607,3.9494-.6222,4.7149-5.9199,1.1408-7.7119-.9863-.4946-2.0165-.9013-3.0762-1.2101,13.5902,2.0148,27.4907,1.9213,41.0526-.2761,2.7933-.4525,6.4188-2.2077,5.3182-5.0432Z"/>
    <path class="cls-15" d="m389.284,381.9716c0,1.3229-3.7498,2.3954-8.3754,2.3954s-8.3754-1.0725-8.3754-2.3954,3.7498-2.3953,8.3754-2.3953,8.3754,1.0724,8.3754,2.3953Z"/>
    <path class="cls-15" d="m185.5938,376.7831c0,3.228-12.8996,5.8448-28.8121,5.8448s-28.8121-2.6168-28.8121-5.8448,12.8996-5.8447,28.8121-5.8447,28.8121,2.6168,28.8121,5.8447Z"/>
    <rect class="cls-15" x="13.1261" y="309.5654" width="16.06" height=".25"/>
    <rect class="cls-15" x="131.8061" y="306.8554" width="53.53" height=".25"/>
    <rect class="cls-15" x="30.1861" y="318.8554" width="36.25" height=".25"/>
    <rect class="cls-15" x="339.8061" y="306.7254" width="43.19" height=".25"/>
    <rect class="cls-15" x="391.9061" y="306.7254" width="6.33" height=".25"/>
    <rect class="cls-15" x="277.6661" y="312.9554" width="53.89" height=".25"/>
    <path class="cls-16" d="m150.9122,97.6306c-1.6813-1.2702-4.1344-1.4141-5.9527-.3491-2.4134-4.8771-9.1391-7.0295-13.9358-4.4599-1.2514-5.2554-6.4294-9.295-11.8314-9.2301-5.402.0651-10.4813,4.228-11.6059,9.5121-.1787.8398-.297,1.7597-.8976,2.3732-.9757.9966-2.6047.6621-3.9953.5536-4.3748-.3412-8.7769,2.7302-9.9666,6.9539l60.247-.2193c.5277-2.0399-.3805-3.8642-2.0617-5.1344Z"/>
    <path class="cls-1" d="m363.7703,152.9959c-2.3579-1.7815-5.7984-1.9833-8.3486-.4896-3.3849-6.8402-12.8177-9.859-19.545-6.2551-1.7551-7.3707-9.0173-13.0362-16.5936-12.9451-7.5764.0911-14.7002,5.9297-16.2773,13.3407-.2506,1.1777-.4165,2.468-1.2589,3.3283-1.3685,1.3978-3.6532.9286-5.6034.7765-6.1358-.4786-12.3097,3.8291-13.9783,9.7528l84.4968-.3075c.74-2.861-.5337-5.4195-2.8917-7.201Z"/>
  </g>
  <g id="Shadow">
    <path class="cls-10" d="m366.2655,410.75c0,4.5064-73.6356,8.1596-164.4698,8.1596s-164.4698-3.6532-164.4698-8.1596,73.6356-8.1598,164.4698-8.1598,164.4698,3.6532,164.4698,8.1598Z"/>
  </g>
  <g id="Lines">
    <path class="cls-17" d="m225.3292,386.1125c24.8445,5.0269,51.0642,3.0661,74.8847-5.6"/>
    <path class="cls-17" d="m259.577,396.7008c10.0895,1.4558,20.5671.1217,29.9698-3.8162"/>
  </g>
  <g id="Sun">
    <g id="freepik--Sun--inject-5">
      <g>
        <path class="cls-19" d="m353.2776,58.6511c0,2.9915-4.3264,5.3677-5.0648,8.1225-.7384,2.7549,1.7703,7.0718.3314,9.5615-1.439,2.4898-6.3996,2.4425-8.4539,4.4873-2.0543,2.0449-1.9597,6.996-4.4873,8.4539s-6.712-1.0887-9.5615-.3313c-2.8496.7573-5.1405,5.0648-8.1226,5.0648s-5.3677-4.3264-8.1225-5.0648c-2.7549-.7384-7.0623,1.7798-9.5616.3313-2.4992-1.4484-2.433-6.3996-4.4872-8.4539-2.0543-2.0543-6.9866-1.9501-8.4539-4.4873-1.4674-2.5371,1.0886-6.7404.3312-9.5804-.7573-2.8401-5.0647-5.131-5.0647-8.1226s4.3263-5.3582,5.0647-8.1131c.7385-2.7548-1.7702-7.0717-.3313-9.5615,1.439-2.4898,6.3996-2.4424,8.4539-4.4968,2.0543-2.0543,1.9596-6.9865,4.4873-8.4539,2.5276-1.4673,6.712,1.0982,9.5615.3314s5.1405-5.0553,8.1226-5.0553,5.3677,4.3263,8.1225,5.0553c2.7548.7289,7.0623-1.7703,9.5615-.3314,2.4993,1.439,2.433,6.3996,4.4873,8.4539,2.0543,2.0544,6.9866,1.9597,8.4539,4.4968,1.4674,2.5371-1.0887,6.712-.3313,9.5615.7573,2.8495,5.0648,5.15,5.0648,8.1321Z"/>
        <g class="cls-14">
          <path class="cls-2" d="m353.2776,58.6511c0,2.9915-4.3264,5.3677-5.0648,8.1225-.7384,2.7549,1.7703,7.0718.3314,9.5615-1.439,2.4898-6.3996,2.4425-8.4539,4.4873-2.0543,2.0449-1.9597,6.996-4.4873,8.4539s-6.712-1.0887-9.5615-.3313c-2.8496.7573-5.1405,5.0648-8.1226,5.0648s-5.3677-4.3264-8.1225-5.0648c-2.7549-.7384-7.0623,1.7798-9.5616.3313-2.4992-1.4484-2.433-6.3996-4.4872-8.4539-2.0543-2.0543-6.9866-1.9501-8.4539-4.4873-1.4674-2.5371,1.0886-6.7404.3312-9.5804-.7573-2.8401-5.0647-5.131-5.0647-8.1226s4.3263-5.3582,5.0647-8.1131c.7385-2.7548-1.7702-7.0717-.3313-9.5615,1.439-2.4898,6.3996-2.4424,8.4539-4.4968,2.0543-2.0543,1.9596-6.9865,4.4873-8.4539,2.5276-1.4673,6.712,1.0982,9.5615.3314s5.1405-5.0553,8.1226-5.0553,5.3677,4.3263,8.1225,5.0553c2.7548.7289,7.0623-1.7703,9.5615-.3314,2.4993,1.439,2.433,6.3996,4.4873,8.4539,2.0543,2.0544,6.9866,1.9597,8.4539,4.4968,1.4674,2.5371-1.0887,6.712-.3313,9.5615.7573,2.8495,5.0648,5.15,5.0648,8.1321Z"/>
        </g>
      </g>
      <circle class="cls-19" cx="317.9173" cy="58.6469" r="25.2671" transform="translate(-2.9648 97.9603) rotate(-17.4369)"/>
      <circle class="cls-6" cx="317.9173" cy="58.6469" r="25.2671" transform="translate(-2.9648 97.9603) rotate(-17.4369)"/>
    </g>
  </g>
  <g id="Character">
    <g>
      <g>
        <g>
          <g>
            <path class="cls-22" d="m142.5423,336.4259l6.6735-51.6306h-54.7527l6.6734,51.6306c-.5783.1644-1.0132.676-1.0132,1.3051,0,.7587.6208,1.3796,1.3795,1.3796h40.6732c.7587,0,1.3795-.6209,1.3795-1.3796,0-.6291-.4349-1.1407-1.0132-1.3051Z"/>
            <path class="cls-3" d="m142.5423,336.4259l6.6735-51.6306h-54.7527l6.6734,51.6306c-.5783.1644-1.0132.676-1.0132,1.3051,0,.7587.6208,1.3796,1.3795,1.3796h40.6732c.7587,0,1.3795-.6209,1.3795-1.3796,0-.6291-.4349-1.1407-1.0132-1.3051Z"/>
          </g>
          <polygon class="cls-12" points="149.2157 284.7953 94.4631 284.7953 95.4205 292.2024 148.6926 288.8425 149.2157 284.7953"/>
          <g>
            <path class="cls-22" d="m152.9684,282.3527h-4.2481c-1.0936-13.8773-12.7277-24.8366-26.881-24.8366s-25.7873,10.9593-26.8808,24.8366h-4.2482c-1.1749,0-2.1361.9611-2.1361,2.136s.9612,2.1362,2.1361,2.1362h62.2581c1.175,0,2.1362-.9614,2.1362-2.1362s-.9612-2.136-2.1362-2.136Zm-31.1291-23.635c13.4896,0,24.5715,10.4228,25.6634,23.635h-51.3267c1.0919-13.2122,12.1738-23.635,25.6633-23.635Z"/>
            <path class="cls-3" d="m152.9684,282.3527h-4.2481c-1.0936-13.8773-12.7277-24.8366-26.881-24.8366s-25.7873,10.9593-26.8808,24.8366h-4.2482c-1.1749,0-2.1361.9611-2.1361,2.136s.9612,2.1362,2.1361,2.1362h62.2581c1.175,0,2.1362-.9614,2.1362-2.1362s-.9612-2.136-2.1362-2.136Zm-31.1291-23.635c13.4896,0,24.5715,10.4228,25.6634,23.635h-51.3267c1.0919-13.2122,12.1738-23.635,25.6633-23.635Z"/>
          </g>
        </g>
        <g class="cls-7">
          <path class="cls-2" d="m104.1694,294.9149c.9796,2.5517,2.3148,5.1208,4.5653,6.6537,2.097,1.5074,5.2642,2.0061,7.2888.181.9126-.6562,1.0512-1.7475,1.8993-2.466,1.0292-.7983,2.6635-.5369,3.3589.5884,2.0196,3.0784,1.2581,7.0571,1.4297,10.3352.0501,2.5162,1.0091,5.4471,3.6118,6.2171,1.1816.3631,2.4697-.0627,3.392-.9386,3.0934-2.9863,2.1943-7.5884,3.5258-11.4589.8932-2.5343,3.3648-5.2185,6.2685-4.565-2.8535-.4134-5.0726,2.2336-5.8018,4.7149-1.2626,4.3187.0047,11.1258-5.3376,13.0958-2.2682.733-4.6622-.8339-5.6492-2.817-2.3211-4.4427.4301-9.916-2.1851-14.1058-.6008-.9791-2.179-.8567-2.607.2785-1.79,3.56-6.6664,3.6662-9.4797,1.3351-2.2753-1.7639-3.5056-4.4252-4.2797-7.0484h0Z"/>
        </g>
        <circle class="cls-8" cx="116.1327" cy="317.4685" r="2.1934"/>
      </g>
      <g>
        <g>
          <g>
            <path class="cls-21" d="m122.5788,142.5445l27.5044,3.0574s20.2828-22.6157,20.2828-22.0724,7.3981,21.8401,7.3981,21.8401c0,0-17.7206,17.2018-23.5157,18.8691-5.795,1.6671-32.5538-11.5168-32.5538-11.5168l.8842-10.1774Z"/>
            <path class="cls-21" d="m126.4796,144.3017s-9.3669-6.8534-11.8426-5.9358c-2.4756.9174-14.5478,2.6036-13.0518,5.8439.1931.4184,4.4508.0711,4.5714.4328.1262.379-2.6173.5757-3.5813,1.5964-1.2497,1.3231,1.4776,5.6054,3.551,5.4822,4.5486-.2701,8.0357-1.0403,8.0357-1.0403,0,0,5.6638,3.6749,9.603,2.8713,3.9391-.8037,2.7146-9.2505,2.7146-9.2505Z"/>
            <path class="cls-13" d="m121.8394,150.0278c-2.9356.0015-5.7437-2.1284-6.5339-4.9555-2.1359.8006-4.3858,1.2967-6.6604,1.4687-.5901.0445-1.2629.0365-1.6673-.3955-.4169-.445-.3542-1.1868-.0171-1.695.337-.508.8822-.834,1.4168-1.1276,2.4515-1.3465,5.0749-2.3801,7.7863-3.0676"/>
            <path class="cls-21" d="m114.637,138.3659s-12.0062.3914-12.8545,1.6038c-.8482,1.2125,5.2316.7815,5.2316.7815l7.6229-2.3853Z"/>
          </g>
          <path class="cls-19" d="m199.7414,118.4795c-2.5714,22.8075-33.9698,42.1011-33.9698,42.1011-6.657-.73-13.2145-11.7505-14.152-18.9642,0,0,19.265-26.9661,29.0371-32.3013,9.0471-4.9393,20.2556-1.2208,19.0847,9.1644Z"/>
          <g class="cls-11">
            <path d="m199.7414,118.4795c-2.5714,22.8075-33.9698,42.1011-33.9698,42.1011-6.657-.73-13.2145-11.7505-14.152-18.9642,0,0,19.265-26.9661,29.0371-32.3013,9.0471-4.9393,20.2556-1.2208,19.0847,9.1644Z"/>
          </g>
          <path class="cls-12" d="m167.0515,159.8105l5.5355-29.4847-10.3371,28.961s1.457,1.2762,3.5217,1.2938c.1148.001,1.2799-.7701,1.2799-.7701Z"/>
        </g>
        <g>
          <g>
            <path class="cls-19" d="m193.6813,264.3525c5.6586-21.8073,20.4443-47.8031,11.0948-68.8018l-40.0652-9.2956s-1.5644,52.3927-1.844,72.7904c-.2939,21.2087,4.1944,47.6245,4.1944,47.6245l22.7831.2423s2.5106-18.0824,3.8369-42.5598Z"/>
            <path class="cls-4" d="m193.6813,264.3525c5.6586-21.8073,20.4443-47.8031,11.0948-68.8018l-40.0652-9.2956s-1.5644,52.3927-1.844,72.7904c-.2939,21.2087,4.1944,47.6245,4.1944,47.6245l22.7831.2423s2.5106-18.0824,3.8369-42.5598Z"/>
            <path class="cls-12" d="m204.917,216.2054c.1899,5.0396-.0759,10.2209-.6262,15.4402-1.9834,6.8605-4.5171,13.7312-6.7946,20.393-2.9797-18.8654-2.9893-40.8528,7.4208-35.8332Z"/>
            <path class="cls-19" d="m236.249,257.296c1.9711-22.0489,2.4551-53.9376,2.6858-73.9231l-44.7161,10.9756s5.3102,45.0318,9.2851,65.3745c4.1301,21.1519,8.7994,47.2442,8.7994,47.2442l22.946.8766s2.1474-23.619.9998-50.5478Z"/>
            <path class="cls-12" d="m165.6499,246.7417c-.9797,0-1.7778.3925-2.6551.9557-.2532,11.003-.1925,21.2584.6255,30.7125.6508.2939,1.3305.4497,2.0296.4497,4.7504,0,8.6014-7.1899,8.6014-16.0589s-3.851-16.059-8.6014-16.059Z"/>
            <path class="cls-12" d="m204.2007,248.6877c-.9666.159-1.6115.6396-2.3858,1.3377,1.8385,10.7829,3.8855,20.9363,5.5228,30.24.6898.1844,1.3857.2278,2.0756.1144,4.6875-.771,7.3205-8.4905,5.881-17.242-1.4394-8.7515-6.4062-15.221-11.0936-14.4501Z"/>
            <path class="cls-4" d="m236.249,257.296c1.9711-22.0489,2.4551-53.9376,2.6858-73.9231l-44.7161,10.9756s5.3102,45.0318,9.2851,65.3745c4.1301,21.1519,8.7994,47.2442,8.7994,47.2442l22.946.8766s2.1474-23.619.9998-50.5478Z"/>
          </g>
          <g>
            <path class="cls-22" d="m189.2355,325.2015c-.1135,1.2487,1.9746,6.8896,1.5416,11.3012-.1021,1.0283-.1965,2.0013-.2798,2.8545l-.0021.001c-.1854,1.8946-.3148,3.1965-.3148,3.1965l-7.8352.068s-1.5911-.8285-2.5206-.7082c-.9263.1216-4.1474.7646-4.1474.7646l-20.8059.1792c.1586-.8736.3575-1.6514.5854-2.3423.2782-.8421.6032-1.5561.9658-2.1609,1.271-2.1149,3.0233-2.8785,4.9349-3.0154,2.9117-.208,7.5009-3.5198,7.5009-3.5198l-3.936-27.9256,26.1208-.6672-1.8076,21.9744Z"/>
            <path class="cls-12" d="m179.8246,341.9145c.9295-.1203,2.5206.7081,2.5206.7081l7.8351-.068s.1295-1.3017.3149-3.1963l.0022-.0011c.0306-.3128.064-.6567.0974-.9987-.7675.1005-1.5069.2185-1.5069.2185l-5.0836-3.7279-3.3891-.9037-2.3723.4519-2.0335,1.5019-.6778,2.0733h-3.615l-2.4311,1.0724c-3.8409-1.2427-4.6538-1.2587-4.6538-1.2587l-1.9787,1.3557c-.5909,0-6.1872.7908-6.5261.9038l-.6786-.0656c-.0658.1733-.1303.3502-.1916.5358-.2279.691-.4268,1.4688-.5854,2.3424l20.8059-.1793s3.2211-.643,4.1474-.7645Z"/>
            <path class="cls-12" d="m182.2623,332.2899l1.0324,1.0323h1.0667l.7226-1.0323-.6538-1.1355s-.413-.4129-.5162-.4129-1.6517,1.5484-1.6517,1.5484Z"/>
            <polygon class="cls-12" points="172.733 334.6098 171.4324 335.4933 172.733 336.5451 174.2512 336.5451 174.0409 335.2829 172.733 334.6098"/>
            <polygon class="cls-12" points="172.6482 333.4318 173.2443 333.9443 173.5823 333.1793 173.3218 332.7948 172.8024 332.7127 172.6482 333.4318"/>
          </g>
          <g>
            <path class="cls-22" d="m234.9561,325.2015c-.1136,1.2487,1.9744,6.8896,1.5415,11.3012-.1021,1.0283-.1965,2.0013-.2797,2.8545l-.0022.001c-.1853,1.8946-.3149,3.1965-.3149,3.1965l-7.8351.068s-1.5911-.8285-2.5206-.7082c-.9263.1216-4.1474.7646-4.1474.7646l-20.8059.1792c.1587-.8736.3575-1.6514.5855-2.3423.278-.8421.6031-1.5561.9656-2.1609,1.271-2.1149,3.0234-2.8785,4.935-3.0154,2.9117-.208,7.5009-3.5198,7.5009-3.5198l-3.9359-27.9256,26.1208-.6672-1.8076,21.9744Z"/>
            <path class="cls-12" d="m225.5451,341.9145c.9295-.1203,2.5206.7081,2.5206.7081l7.8351-.068s.1296-1.3017.3149-3.1963l.0022-.0011c.0305-.3128.064-.6567.0974-.9987-.7675.1005-1.5069.2185-1.5069.2185l-5.0837-3.7279-3.389-.9037-2.3723.4519-2.0335,1.5019-.6778,2.0733h-3.615l-2.4311,1.0724c-3.8409-1.2427-4.6538-1.2587-4.6538-1.2587l-1.9786,1.3557c-.591,0-6.1872.7908-6.5261.9038l-.6787-.0656c-.0658.1733-.1303.3502-.1915.5358-.2281.691-.4268,1.4688-.5855,2.3424l20.8059-.1793s3.2211-.643,4.1474-.7645Z"/>
            <path class="cls-12" d="m227.9828,332.2899l1.0323,1.0323h1.0667l.7227-1.0323-.6538-1.1355s-.4129-.4129-.5161-.4129c-.1033,0-1.6518,1.5484-1.6518,1.5484Z"/>
            <polygon class="cls-12" points="218.4535 334.6098 217.1529 335.4933 218.4535 336.5451 219.9717 336.5451 219.7613 335.2829 218.4535 334.6098"/>
            <polygon class="cls-12" points="218.3687 333.4318 218.9649 333.9443 219.3028 333.1793 219.0423 332.7948 218.5229 332.7127 218.3687 333.4318"/>
          </g>
        </g>
        <g>
          <path class="cls-19" d="m189.0313,105.3781c12.0038-1.2516,28.0358-1.1014,40.4753.6435,7.7641,1.0892,13.2456,5.9213,12.3046,21.8238-1.9087,32.2575,1.2294,64.714-2.8764,76.3123,0,0-59.0564,8.9515-76.0817-7.4446,2.9185-36.1325,8.9534-70.1967,15.3112-83.6153,2.0333-4.291,6.1441-7.2273,10.867-7.7197Z"/>
          <path class="cls-11" d="m189.0313,105.3781c12.0038-1.2516,28.0358-1.1014,40.4753.6435,7.7641,1.0892,13.2456,5.9213,12.3046,21.8238-1.9087,32.2575,1.2294,64.714-2.8764,76.3123,0,0-59.0564,8.9515-76.0817-7.4446,2.9185-36.1325,8.9534-70.1967,15.3112-83.6153,2.0333-4.291,6.1441-7.2273,10.867-7.7197Z"/>
        </g>
        <g>
          <g>
            <path class="cls-19" d="m208.557,56.2735c-7.9479,1.4363-17.8128,11.3554-17.8128,11.3554,0,0-.1026,8.6796,9.1512,14.6186s16.6167,5.8156,20.5112,2.1592c3.2188-3.0221,2.6891-14.8546,2.4084-18.8692-.071-1.0172-.4178-2.0082-1.0591-2.8008-1.3928-1.7213-3.4286-2.8728-5.7075-3.1763,0,0-2.2291-4.1461-7.4914-3.2869Z"/>
            <path class="cls-12" d="m208.557,56.2735c-7.9479,1.4363-17.8128,11.3554-17.8128,11.3554,0,0-.1026,8.6796,9.1512,14.6186s16.6167,5.8156,20.5112,2.1592c3.2188-3.0221,2.6891-14.8546,2.4084-18.8692-.071-1.0172-.4178-2.0082-1.0591-2.8008-1.3928-1.7213-3.4286-2.8728-5.7075-3.1763,0,0-2.2291-4.1461-7.4914-3.2869Z"/>
            <path class="cls-12" d="m202.4278,58.6498c.2289-.1256,14.7005,3.1084,20.6028,12.8627l-.0099,2.7907-22.4147-14.5727,1.8218-1.0807Z"/>
            <path class="cls-19" d="m196.2547,58.6464c-16.4395-2.4485-18.4216,18.151-.5561,29.087,17.8656,10.9359,36.9161,9.4549,36.5928,2.1055-.3676-8.3582-10.9351-27.4209-36.0367-31.1925Z"/>
            <path class="cls-12" d="m220.3334,79.6048s2.4773,4.26,2.7344,7.9107c.3514,4.9916-4.2974,8.0278-4.2974,8.0278l-3.74-.4298.4862-6.3834,4.8168-9.1253Z"/>
          </g>
          <path class="cls-22" d="m196.054,70.7979c-4.405,3.3289-6.0987,5.0214-6.0987,5.0214,0,0,1.2852.3951,2.155.0038-1.8189,3.1671-1.1071,7.4968-.1977,8.7818,4.4878-4.211,4.1414-13.807,4.1414-13.807Z"/>
          <path class="cls-5" d="m196.054,70.7979c-4.405,3.3289-6.0987,5.0214-6.0987,5.0214,0,0,1.2852.3951,2.155.0038-1.8189,3.1671-1.1071,7.4968-.1977,8.7818,4.4878-4.211,4.1414-13.807,4.1414-13.807Z"/>
          <path class="cls-21" d="m217.5032,104.8743c-3.0019-2.6921-2.8653-7.3045-2.5033-14.0818l-18.4201,9.9385c.9476,1.8909,1.1859,3.612.8523,5.2564l4.474,8.7376s15.9836-9.3246,15.5971-9.8507Z"/>
          <path class="cls-12" d="m196.8507,101.3065l14.5441-3.6381c-3.6729,5.7818-10.2927,8.9452-13.8496,7.5471.1109-1.2429-.0996-2.529-.6945-3.909Z"/>
          <path class="cls-21" d="m202.8719,68.1451c7.044.6943,16.9345,6.9522,16.0712,14.572-1.0029,8.8536-3.3295,14.591-9.356,17.5582-11.9739,5.895-17.821.2087-18.7984-8.8996-.8799-8.1983,2.126-24.212,12.0832-23.2306Z"/>
          <path class="cls-22" d="m214.942,73.7585c.4575,3.8083-.0844,7.5175-2.1265,8.5493,2.7421.0829,3.7307-.4482,3.7307-.4482,0,0-4.8691,3.6942-1.6042,6.0667,3.7393-2.1352,6.2567-5.7596,6.2567-5.7596,0,0-.6327-4.9065-6.2567-8.4082Z"/>
          <path class="cls-12" d="m206.2535,82.2712s1.921-.6585,3.3557.241c-1.8466.2338-3.3557-.241-3.3557-.241Z"/>
          <path class="cls-12" d="m206.2496,83.0742s1.8396-.2233,2.891.9712c-1.6758-.1761-2.891-.9712-2.891-.9712Z"/>
          <path class="cls-20" d="m197.5821,82.6881l.0433,6.5306s-2.102.5197-3.3481-.6223c.7047-3.3433,3.3048-5.9083,3.3048-5.9083Z"/>
          <path class="cls-22" d="m214.942,73.7585c-3.2989-.1457-12.0768-2.6368-12.0768-2.6368,0,0,1.2265-.8698,2.5903-.9885-4.4092.0791-6.7651,2.2539-12.9613,1.0281.921-1.6606,5.858-4.1418,12.3256-3.0593,6.4675,1.0823,10.1222,5.6565,10.1222,5.6565Z"/>
          <path class="cls-5" d="m214.942,73.7585c.4575,3.8083-.0844,7.5175-2.1265,8.5493,2.7421.0829,3.7307-.4482,3.7307-.4482,0,0-4.8691,3.6942-1.6042,6.0667,3.7393-2.1352,6.2567-5.7596,6.2567-5.7596,0,0-.6327-4.9065-6.2567-8.4082Z"/>
          <path class="cls-5" d="m214.942,73.7585c-3.2989-.1457-12.0768-2.6368-12.0768-2.6368,0,0,1.2265-.8698,2.5903-.9885-4.4092.0791-6.7651,2.2539-12.9613,1.0281.921-1.6606,5.858-4.1418,12.3256-3.0593,6.4675,1.0823,10.1222,5.6565,10.1222,5.6565Z"/>
          <path class="cls-21" d="m221.4634,89.1067c-.9128,2.2261-2.7722,3.8124-4.613,4.5323-2.769,1.0834-3.5019-1.9043-3.003-4.6827.449-2.5008,1.4559-5.5064,4.3653-5.4022,2.8665.1031,4.2942,3.0079,3.2507,5.5526Z"/>
          <path class="cls-22" d="m205.8827,83.0602c-.0804.9095-.6278,1.5997-1.223,1.5413-.5948-.0585-1.0121-.8434-.9317-1.753.0802-.9098.6278-1.5998,1.2226-1.5413.595.0583,1.0122.8431.9321,1.753Z"/>
          <path class="cls-22" d="m196.4417,82.1446c-.0801.9096-.6276,1.5995-1.2225,1.5413-.595-.0586-1.0122-.8433-.932-1.753.0802-.9098.6277-1.5999,1.2226-1.5412.595.0585,1.0123.8433.9319,1.7529Z"/>
          <path class="cls-22" d="m206.7832,78.3687c-.1424.044-.3042.0123-.422-.0977-1.3999-1.3053-2.9351-.9562-2.9504-.9527-.2296.0548-.4624-.086-.5196-.3146-.057-.2286.0837-.4586.3118-.514.081-.0198,2.0047-.458,3.7412,1.1622.1735.1615.1834.4314.0226.6025-.0522.0555-.1154.0934-.1836.1143Z"/>
          <path class="cls-22" d="m215.0977,86.0124s-1.2008-1.1306-2.6242.7673c-1.4235,1.8978-.2462,4.6161-4.5346,3.3402-3.6773-1.094-5.1868-1.5752-7.3974.0922-4.2672-.4187-8.2089.088-9.1973.7602-.949-1.26-.6375-3.1251-.5377-5.8947-1.33,5.6293-3.1115,10.484-1.4772,12.5908,0,0,.4517-.8455.7266-1.0829-.0016,2.5702,1.7777,5.6226,3.9524,6.8878.269-.9358.269-1.5817.269-1.5817,0,0,2.0312,1.1457,6.3765,1.0471-.2311.4728-.5758,1.029-1.0177,1.2913,1.4102-.1473,4.2623-.9003,5.9586-1.8624.2205-.0433.4315-.0786.6588-.1278-.5019.7513-.5941,1.463-.4491,2.122,7.6283-2.1189,8.6248-9.3201,8.053-12.1652-.6357-3.1636,1.2403-6.1842,1.2403-6.1842Z"/>
          <path class="cls-5" d="m215.0977,86.0124s-1.2008-1.1306-2.6242.7673c-1.4235,1.8978-.2462,4.6161-4.5346,3.3402-3.6773-1.094-5.1868-1.5752-7.3974.0922-4.2672-.4187-8.2089.088-9.1973.7602-.949-1.26-.6375-3.1251-.5377-5.8947-1.33,5.6293-3.1115,10.484-1.4772,12.5908,0,0,.4517-.8455.7266-1.0829-.0016,2.5702,1.7777,5.6226,3.9524,6.8878.269-.9358.269-1.5817.269-1.5817,0,0,2.0312,1.1457,6.3765,1.0471-.2311.4728-.5758,1.029-1.0177,1.2913,1.4102-.1473,4.2623-.9003,5.9586-1.8624.2205-.0433.4315-.0786.6588-.1278-.5019.7513-.5941,1.463-.4491,2.122,7.6283-2.1189,8.6248-9.3201,8.053-12.1652-.6357-3.1636,1.2403-6.1842,1.2403-6.1842Z"/>
          <path class="cls-17" d="m200.3198,91.9458c1.1809-.8944,2.5438-.9886,4.1228-.7897"/>
          <path class="cls-13" d="m219.6502,87.1465c-.3113-.5625-1.0244-.8221-1.6597-.7241-.6349.0981-1.1907.4968-1.6155.9791-.5097.579-.8649,1.293-1.0189,2.0489"/>
          <path class="cls-22" d="m191.6465,77.662c-.0775-.024-.1491-.0705-.2046-.1386-.1498-.1835-.1247-.4537.0566-.6032,1.8183-1.5003,3.6915-.9061,3.7788-.8904.2244.0725.3499.3137.2798.5391-.0697.2247-.3065.3485-.53.2787-.0771-.0278-1.5259-.4667-2.9856.7374-.1141.0943-.2632.1182-.395.077Z"/>
        </g>
        <g>
          <path class="cls-18" d="m208.6336,155.2586c-9.3539,14.3092-32.3754,33.838-62.2906,28.9311-29.9153-4.9069-34.2725-38.1582-34.2725-38.1582.7891,12.9903,5.3969,25.7808,14.52,35.0619,5.3891,5.4824,12.9651,8.476,20.6075,9.3085,7.6424.8326,15.3808-.355,22.8183-2.2998,8.7023-2.2756,17.2461-5.6571,24.3861-11.1276,7.1401-5.4706,12.8024-13.1978,14.5863-22.014-13.7615,11.6326-31.3508,19.5647-49.3539,18.7989-18.003-.7658-37.901-11.858-44.5196-28.6178"/>
          <line class="cls-18" x1="112.0705" y1="149.6561" x2="116.5006" y2="148.2016"/>
          <line class="cls-18" x1="113.2265" y1="154.902" x2="118.9768" y2="152.3374"/>
          <line class="cls-18" x1="114.368" y1="160.367" x2="121.8394" y2="156.4285"/>
          <line class="cls-18" x1="116.3607" y1="165.4697" x2="125.7924" y2="160.4979"/>
          <line class="cls-18" x1="119.0807" y1="171.3808" x2="130.5914" y2="163.8002"/>
          <line class="cls-18" x1="123.1649" y1="177.2157" x2="135.2618" y2="166.709"/>
          <line class="cls-18" x1="128.0993" y1="182.4242" x2="139.8755" y2="169.008"/>
          <line class="cls-18" x1="133.3771" y1="186.5005" x2="144.448" y2="170.8049"/>
          <line class="cls-18" x1="140.0452" y1="189.157" x2="149.7294" y2="172.1197"/>
          <line class="cls-18" x1="148.7981" y1="190.5464" x2="155.4612" y2="173.5682"/>
          <path class="cls-18" d="m113.6598,145.619s9.2567,34.3695,43.4807,33.9371c0,0,28.6988.7503,51.4931-24.2975"/>
          <line class="cls-18" x1="158.1824" y1="190.5464" x2="160.5296" y2="173.7891"/>
          <line class="cls-18" x1="166.0385" y1="189.0571" x2="166.0385" y2="173.6022"/>
          <line class="cls-18" x1="173.8984" y1="187.0058" x2="171.4277" y2="173.0539"/>
          <line class="cls-18" x1="184.7332" y1="182.8424" x2="179.992" y2="171.0207"/>
          <line class="cls-18" x1="192.0675" y1="178.6527" x2="186.2663" y2="168.8243"/>
          <line class="cls-18" x1="199.7699" y1="172.1197" x2="193.1377" y2="165.5628"/>
          <line class="cls-18" x1="198.5267" y1="162.5896" x2="204.4604" y2="166.0639"/>
          <circle class="cls-19" cx="173.8984" cy="187.0058" r="2.8068"/>
          <path class="cls-19" d="m202.4866,173.024c0,1.5502-1.2566,2.8068-2.8068,2.8068s-2.8067-1.2566-2.8067-2.8068,1.2566-2.8067,2.8067-2.8067,2.8068,1.2566,2.8068,2.8067Z"/>
          <circle class="cls-19" cx="140.5454" cy="189.7003" r="2.8068"/>
          <path class="cls-19" d="m121.7249,172.6377c0,1.5502-1.2566,2.8068-2.8068,2.8068s-2.8067-1.2566-2.8067-2.8068,1.2566-2.8068,2.8067-2.8068,2.8068,1.2567,2.8068,2.8068Z"/>
          <path class="cls-19" d="m115.9475,148.1267c0,1.5501-1.2567,2.8067-2.8068,2.8067s-2.8068-1.2566-2.8068-2.8067,1.2566-2.8068,2.8068-2.8068,2.8068,1.2566,2.8068,2.8068Z"/>
        </g>
        <g>
          <path class="cls-21" d="m236.2293,118.9873c1.2617,2.0585,12.9469-.5169,16.5626,9.9649,3.6158,10.4817,13.1435,33.7881,10.651,42.1268-2.4925,8.3386-45.6318-11.7413-45.6318-11.7413l1.1523-11.4083,22.1727,4.5522-4.9068-33.4943Z"/>
          <path class="cls-19" d="m232.8311,106.8325c21.6604,7.5906,33.4697,44.9802,33.4697,44.9802-2.1955,6.3267-18.787,1.1669-26.0281.4728,0,0-17.6068-18.1758-20.6295-28.8913-2.7985-9.9204,3.3248-20.018,13.1879-16.5617Z"/>
          <g class="cls-11">
            <path d="m232.8311,106.8325c21.6604,7.5906,33.4697,44.9802,33.4697,44.9802-2.1955,6.3267-18.787,1.1669-26.0281.4728,0,0-17.6068-18.1758-20.6295-28.8913-2.7985-9.9204,3.3248-20.018,13.1879-16.5617Z"/>
          </g>
          <path class="cls-12" d="m240.2727,152.2855l-6.183-13.2347s.8241,11.8277,1.544,12.1811l4.639,1.0536Z"/>
          <path class="cls-21" d="m213.9092,146.6781s-5.2918-2.6106-9.4824-2.8295c-4.1906-.2188-6.1097,9.5683-6.1097,9.5683-.3537,7.2454,5.8803,4.8491,5.8803,4.8491,1.0824,3.8606,4.775,2.4302,4.775,2.4302.8435,3.8972,3.5374,2.3327,3.5374,2.3327.8287-4.1544,5.3013-3.6913,5.3013-3.6913l10.4192,4.1515,16.2904-8.2565-30.6115-8.5545Z"/>
        </g>
      </g>
      <g>
        <path class="cls-9" d="m0,292.7419s43.3705,52.2705,108.8773,64.5199c38.7155,7.2395,247.5952,3.226,247.5952,3.226l29.0339-42.7445s-229.0456-5.6455-385.5064-25.0014Z"/>
        <path class="cls-12" d="m108.8773,357.2617c6.7132,1.2553,18.5454,2.172,33.5148,2.8303l119.2996,1.4535c51.1071-.2189,94.7808-1.0578,94.7808-1.0578l28.8383-42.4564-1.4975-.0795c-26.239,35.2856-165.0708,29.0078-232.4771,26.7071C53.4531,341.3181,0,292.7418,0,292.7418c0,0,43.3705,52.2706,108.8773,64.5199Z"/>
      </g>
      <g>
        <path class="cls-18" d="m214.4212,160.3658l-3.8363,1.8804s-6.8877,207.7296-5.664,208.3093c26.1503,6.5416,52.3161,9.4254,78.5378-.6316,24.6124-11.4259,73.4091-6.1097,121.9355-.9807-.0008.5642-190.973-208.5774-190.973-208.5774Z"/>
        <line class="cls-18" x1="211.8163" y1="161.6426" x2="281.3352" y2="370.7073"/>
        <line class="cls-18" x1="213.0127" y1="160.5806" x2="317.5295" y2="363.3404"/>
        <path class="cls-18" d="m204.978,353.946s33.9466,9.7148,60.9973,3.7365c27.0507-5.9784,69.8467-15.1296,125.9507-3.2559"/>
        <path class="cls-18" d="m204.978,338.978s33.9466,9.7147,60.9973,3.7364c24.3412-5.3795,61.4313-13.3282,109.4948-6.2154"/>
        <path class="cls-18" d="m205.634,324.1901s33.2906,9.5346,60.3413,3.5562c21.6781-4.7909,53.468-11.6196,94.1155-8.0322"/>
        <path class="cls-18" d="m205.866,309.4577s33.0586,9.2989,60.1093,3.3206c19.1919-4.2415,45.5379-10.0049,79.7104-8.799"/>
        <path class="cls-18" d="m206.2314,294.4123s32.6932,9.3763,59.7439,3.3979c16.3668-3.6171,38.4975-8.3958,65.8524-8.9764"/>
        <path class="cls-18" d="m206.7447,279.5771s32.1799,9.2434,59.2306,3.2651c13.7446-3.0377,31.5542-6.8944,53.109-8.3962"/>
        <path class="cls-18" d="m207.3332,264.8861s31.5914,8.9663,58.6421,2.988c10.9389-2.4175,24.4525-5.3539,40.3798-7.2091"/>
        <path class="cls-18" d="m207.649,250.0107s31.2756,8.8737,58.3263,2.8953c7.9764-1.7628,17.3217-3.8015,27.9736-5.4956"/>
        <path class="cls-18" d="m208.2498,235.049s30.6748,8.8673,57.7255,2.889c4.9924-1.1034,10.0426-2.359,16.0923-3.5264"/>
        <path class="cls-18" d="m208.5146,220.1452s30.41,8.8031,57.4607,2.8247c1.5155-.3349,3.0804-.6798,4.6942-1.0304"/>
        <path class="cls-18" d="m209.0389,205.3029s25.0291,7.2672,50.0092,3.9185"/>
        <path class="cls-18" d="m209.6579,190.6716s16.7188,4.7646,36.5633,4.5102"/>
        <path class="cls-18" d="m210.1458,175.626s9.1058,2.6635,21.8878,3.9301"/>
        <polyline class="cls-18" points="259.2869 376.0054 210.5849 162.2462 236.3153 376.0525"/>
        <polyline class="cls-18" points="377.0936 366.0426 214.4212 160.3658 345.2522 363.3404"/>
        <path class="cls-19" d="m249.2434,194.7771c0,1.3665-1.1078,2.4743-2.4744,2.4743s-2.4743-1.1078-2.4743-2.4743,1.1078-2.4744,2.4743-2.4744,2.4744,1.1078,2.4744,2.4744Z"/>
        <path class="cls-19" d="m265.1501,211.7442c0,1.3665-1.1078,2.4743-2.4744,2.4743s-2.4744-1.1078-2.4744-2.4743,1.1079-2.4744,2.4744-2.4744,2.4744,1.1078,2.4744,2.4744Z"/>
        <path class="cls-19" d="m279.2857,227.2974c0,1.3665-1.1079,2.4743-2.4744,2.4743s-2.4744-1.1078-2.4744-2.4743,1.1078-2.4744,2.4744-2.4744,2.4744,1.1078,2.4744,2.4744Z"/>
        <path class="cls-19" d="m297.2192,245.9425c0,1.3666-1.1078,2.4744-2.4743,2.4744s-2.4744-1.1078-2.4744-2.4744,1.1078-2.4744,2.4744-2.4744,2.4743,1.1078,2.4743,2.4744Z"/>
        <path class="cls-19" d="m316.347,269.3693c0,1.3666-1.1078,2.4744-2.4743,2.4744s-2.4744-1.1078-2.4744-2.4744,1.1078-2.4743,2.4744-2.4743,2.4743,1.1078,2.4743,2.4743Z"/>
        <path class="cls-19" d="m337.942,291.8442c0,1.3665-1.1078,2.4744-2.4744,2.4744s-2.4743-1.1079-2.4743-2.4744,1.1078-2.4744,2.4743-2.4744,2.4744,1.1078,2.4744,2.4744Z"/>
        <path class="cls-19" d="m207.649,309.4541c0,1.3665-1.1078,2.4743-2.4744,2.4743s-2.4744-1.1078-2.4744-2.4743,1.1079-2.4744,2.4744-2.4744,2.4744,1.1078,2.4744,2.4744Z"/>
        <path class="cls-19" d="m206.2688,283.2497c-1.3658.0468-2.5108-1.0224-2.5576-2.3881-.0468-1.3658,1.0224-2.5109,2.3881-2.5577,1.3658-.0468,2.5109,1.0224,2.5577,2.3882.0468,1.3657-1.0224,2.5108-2.3882,2.5576Z"/>
        <path class="cls-19" d="m207.6485,259.7633c-1.3658.0468-2.5109-1.0224-2.5577-2.3882-.0468-1.3657,1.0225-2.5108,2.3882-2.5576,1.3658-.0468,2.5109,1.0224,2.5577,2.3882.0468,1.3657-1.0225,2.5108-2.3882,2.5576Z"/>
        <path class="cls-19" d="m207.8864,233.7575c-1.3657.0468-2.5108-1.0224-2.5576-2.3882-.0468-1.3657,1.0224-2.5108,2.3882-2.5576,1.3657-.0468,2.5108,1.0224,2.5576,2.3882.0468,1.3657-1.0224,2.5108-2.3882,2.5576Z"/>
        <path class="cls-19" d="m208.8361,207.7758c-1.3657.0468-2.5108-1.0224-2.5576-2.3882-.0468-1.3657,1.0224-2.5108,2.3882-2.5576,1.3657-.0468,2.5108,1.0224,2.5576,2.3882.0468,1.3657-1.0224,2.5108-2.3882,2.5576Z"/>
        <path class="cls-19" d="m209.943,180.7366c-1.3657.0468-2.5108-1.0224-2.5576-2.3882-.0468-1.3657,1.0224-2.5108,2.3882-2.5576,1.3657-.0468,2.5108,1.0224,2.5576,2.3881.0468,1.3658-1.0224,2.5109-2.3882,2.5577Z"/>
        <path class="cls-19" d="m207.4524,338.978c0,1.3665-1.1078,2.4743-2.4744,2.4743s-2.4744-1.1078-2.4744-2.4743,1.1078-2.4744,2.4744-2.4744,2.4744,1.1078,2.4744,2.4744Z"/>
        <circle class="cls-19" cx="204.978" cy="368.2329" r="2.4744"/>
        <path class="cls-19" d="m355.1621,311.629c0,1.3666-1.1078,2.4744-2.4743,2.4744s-2.4744-1.1078-2.4744-2.4744,1.1078-2.4743,2.4744-2.4743,2.4743,1.1078,2.4743,2.4743Z"/>
        <path class="cls-19" d="m377.9444,336.499c0,1.3666-1.1078,2.4744-2.4743,2.4744s-2.4744-1.1078-2.4744-2.4744,1.1078-2.4743,2.4744-2.4743,2.4743,1.1078,2.4743,2.4743Z"/>
        <path class="cls-19" d="m399.187,359.627c0,1.3665-1.1078,2.4744-2.4743,2.4744s-2.4744-1.1079-2.4744-2.4744,1.1078-2.4744,2.4744-2.4744,2.4743,1.1078,2.4743,2.4744Z"/>
      </g>
    </g>
  </g>
</svg>